Simulation
nRows=24
nColumns=15
endheader
time  TH_x TH_y TH_z SC_y  SC_z  SC_x  AC_y  AC_z  AC_x  GH_y  GH_z  GH_yy  EL_x  PS_y
0.0  0.000000  0.000000  0.000000  -32.0289565439712  3.0745695992013804  12.690100242741332  63.395102683027524  5.184664924200182  -5.666699703993842  45.026266029113934  46.81337992883352  -55.37864306660008  24.030033498560847  0.000000
0.023  0.000000  0.000000  0.000000  -31.88188443020084  3.9895893191184317  13.79084395903545  63.8264187853014  6.396697191639525  -5.0119344686464835  44.96223300795361  48.5991382673128  -55.33243578609135  24.583883383705974  0.000000
0.046  0.000000  0.000000  0.000000  -32.00196274007688  4.850405820181542  14.63467511828565  64.11539098322005  7.207943121997584  -4.378201764797193  45.049717663774366  50.11032200923816  -55.379997911014115  25.047786433340573  0.000000
0.069  0.000000  0.000000  0.000000  -32.410293901928355  5.541930172443204  15.325018779991591  64.27651937426636  7.586530094596508  -3.754895318744425  45.30408117645612  51.3387308694297  -55.61083720905747  25.42504224658164  0.000000
0.092  0.000000  0.000000  0.000000  -32.91994480233282  6.042560729519749  15.928389041539555  64.39495462684151  7.639096886998008  -3.3286480821933093  45.6330320798493  52.30118468214502  -56.026798573764964  25.709592592915605  0.000000
0.11499999999999999  0.000000  0.000000  0.000000  -33.402070802328645  6.392050484827571  16.471786468579314  64.46853422160005  7.507882128227366  -3.0867500916545607  45.988791849656074  52.95745667413194  -56.51256605989244  25.892299652922564  0.000000
0.138  0.000000  0.000000  0.000000  -33.81412184049942  6.633770164254624  16.879197659211865  64.50288652296118  7.315326799202083  -2.934884572572071  46.34490061601219  53.34310674223782  -57.0844789046934  25.988800455009624  0.000000
0.161  0.000000  0.000000  0.000000  -34.16973351727171  6.780196020972651  17.131271172904125  64.53047365220174  7.138938450949432  -2.833876317659959  46.714624258123656  53.5095821089304  -57.721949881910156  26.026464347969284  0.000000
0.184  0.000000  0.000000  0.000000  -34.45311107228063  6.855951462984095  17.242727349824744  64.54549532216812  6.984616546949053  -2.760845309239583  47.102181818149546  53.510299500345745  -58.427484915109346  26.039843979415945  0.000000
0.207  0.000000  0.000000  0.000000  -34.6587459277056  6.892779886493185  17.244904890977548  64.55118990272675  6.856118043769601  -2.7014156946620607  47.51447905436568  53.39045453907467  -59.19731946930092  26.0012443610215  0.000000
0.22999999999999998  0.000000  0.000000  0.000000  -34.785230341616995  6.908075039790937  17.15813464621453  64.53348821448508  6.748209465678327  -2.646345412840881  47.949901211287376  53.18387253630401  -60.01414640657919  25.936640505203854  0.000000
0.253  0.000000  0.000000  0.000000  -34.8539607448136  6.905599068039088  17.006580463360635  64.50499021878248  6.662159562741455  -2.6006747002629784  48.409635606766095  52.92231373301434  -60.86443880802519  25.86224973362392  0.000000
0.276  0.000000  0.000000  0.000000  -34.87604993913359  6.889734704312766  16.80944142074177  64.46503708801495  6.589117976535941  -2.557511089086208  48.8897424441249  52.62701305897863  -61.73206874264676  25.785022755579224  0.000000
0.299  0.000000  0.000000  0.000000  -34.86029983499667  6.863085189387705  16.59006683360512  64.42015338234795  6.519241340964001  -2.5256974567675288  49.38371355480526  52.31852199194998  -62.605084571553846  25.70563472764651  0.000000
0.322  0.000000  0.000000  0.000000  -34.812336566441154  6.829177917657535  16.370388213147166  64.36791365553715  6.436412961278797  -2.5068700612436325  49.8883181693712  52.0069159242646  -63.46799934031853  25.62907569941353  0.000000
0.345  0.000000  0.000000  0.000000  -34.74325853263741  6.790108350292693  16.153437456246344  64.31912721391778  6.34373922263983  -2.4942912883164947  50.399410038576605  51.69790312689936  -64.31717424151567  25.556428772886246  0.000000
0.368  0.000000  0.000000  0.000000  -34.65846667942373  6.749731849253721  15.93660952918495  64.27721230219551  6.2465463565506045  -2.4771534593616935  50.91662172423302  51.39000027109542  -65.14544440468214  25.49134765529279  0.000000
0.391  0.000000  0.000000  0.000000  -34.562629149375425  6.70912445986258  15.725921001666713  64.24727468630891  6.142715357568046  -2.4547615306037094  51.4392052077721  51.0841388082988  -65.94867966637547  25.436635102048744  0.000000
0.414  0.000000  0.000000  0.000000  -34.45721513738857  6.667708632364019  15.52355594548323  64.23084786140738  6.031458814649476  -2.4257117896171527  51.9670398217974  50.77924885623452  -66.721606563477  25.39438762433049  0.000000
0.437  0.000000  0.000000  0.000000  -34.34590457174702  6.625823911616455  15.332060386826578  64.23143131865875  5.911376432330216  -2.388996179686117  52.49925969581395  50.47503199321186  -67.46128692578692  25.36630661639463  0.000000
0.45999999999999996  0.000000  0.000000  0.000000  -34.22964390172809  6.582906106253882  15.151715609507788  64.24962361261002  5.781747197840684  -2.3438737522884505  53.0359150065224  50.170441288350744  -68.16472116992041  25.35349003779268  0.000000
0.483  0.000000  0.000000  0.000000  -34.11150225987429  6.53885270472877  14.983526069586512  64.28749346235422  5.641831516980856  -2.289594290931511  53.576167068851554  49.86500588015832  -68.83006404404664  25.356976153384892  0.000000
0.506  0.000000  0.000000  0.000000  -33.99174254738313  6.492918178242321  14.826655425669152  64.34476587541961  5.49163099252201  -2.2261659015505124  54.119827541451144  49.55817155582998  -69.4560734578443  25.37716694514802  0.000000
0.529  0.000000  0.000000  0.000000  -33.872841791015986  6.444921764267979  14.68133648622333  64.42235247771079  5.331238162892704  -2.1532093664473577  54.66596738754267  49.2497242278707  -70.04190103593342  25.41449276024228  0.000000
